<svg width="489" height="52" viewBox="0 0 489 52" fill="none" xmlns="http://www.w3.org/2000/svg">
<path d="M25.328 32V20.8H27.92V32H25.328ZM35.938 32.192C35.074 32.192 34.2687 32.0533 33.522 31.776C32.786 31.488 32.146 31.0827 31.602 30.56C31.058 30.0373 30.6313 29.424 30.322 28.72C30.0233 28.016 29.874 27.2427 29.874 26.4C29.874 25.5573 30.0233 24.784 30.322 24.08C30.6313 23.376 31.058 22.7627 31.602 22.24C32.1567 21.7173 32.802 21.3173 33.538 21.04C34.274 20.752 35.0793 20.608 35.954 20.608C36.9247 20.608 37.7993 20.7787 38.578 21.12C39.3673 21.4507 40.0287 21.9413 40.562 22.592L38.898 24.128C38.514 23.6907 38.0873 23.3653 37.618 23.152C37.1487 22.928 36.6367 22.816 36.082 22.816C35.5593 22.816 35.0793 22.9013 34.642 23.072C34.2047 23.2427 33.826 23.488 33.506 23.808C33.186 24.128 32.9353 24.5067 32.754 24.944C32.5833 25.3813 32.498 25.8667 32.498 26.4C32.498 26.9333 32.5833 27.4187 32.754 27.856C32.9353 28.2933 33.186 28.672 33.506 28.992C33.826 29.312 34.2047 29.5573 34.642 29.728C35.0793 29.8987 35.5593 29.984 36.082 29.984C36.6367 29.984 37.1487 29.8773 37.618 29.664C38.0873 29.44 38.514 29.104 38.898 28.656L40.562 30.192C40.0287 30.8427 39.3673 31.3387 38.578 31.68C37.7993 32.0213 36.9193 32.192 35.938 32.192ZM47.518 32.192C46.6327 32.192 45.8113 32.048 45.054 31.76C44.3073 31.472 43.6567 31.0667 43.102 30.544C42.558 30.0213 42.1313 29.408 41.822 28.704C41.5233 28 41.374 27.232 41.374 26.4C41.374 25.568 41.5233 24.8 41.822 24.096C42.1313 23.392 42.5633 22.7787 43.118 22.256C43.6727 21.7333 44.3233 21.328 45.07 21.04C45.8167 20.752 46.6273 20.608 47.502 20.608C48.3873 20.608 49.198 20.752 49.934 21.04C50.6807 21.328 51.326 21.7333 51.87 22.256C52.4247 22.7787 52.8567 23.392 53.166 24.096C53.4753 24.7893 53.63 25.5573 53.63 26.4C53.63 27.232 53.4753 28.0053 53.166 28.72C52.8567 29.424 52.4247 30.0373 51.87 30.56C51.326 31.072 50.6807 31.472 49.934 31.76C49.198 32.048 48.3927 32.192 47.518 32.192ZM47.502 29.984C48.0033 29.984 48.462 29.8987 48.878 29.728C49.3047 29.5573 49.678 29.312 49.998 28.992C50.318 28.672 50.5633 28.2933 50.734 27.856C50.9153 27.4187 51.006 26.9333 51.006 26.4C51.006 25.8667 50.9153 25.3813 50.734 24.944C50.5633 24.5067 50.318 24.128 49.998 23.808C49.6887 23.488 49.3207 23.2427 48.894 23.072C48.4673 22.9013 48.0033 22.816 47.502 22.816C47.0007 22.816 46.5367 22.9013 46.11 23.072C45.694 23.2427 45.326 23.488 45.006 23.808C44.686 24.128 44.4353 24.5067 44.254 24.944C44.0833 25.3813 43.998 25.8667 43.998 26.4C43.998 26.9227 44.0833 27.408 44.254 27.856C44.4353 28.2933 44.6807 28.672 44.99 28.992C45.31 29.312 45.6833 29.5573 46.11 29.728C46.5367 29.8987 47.0007 29.984 47.502 29.984ZM55.578 32V20.8H57.722L64.33 28.864H63.29V20.8H65.85V32H63.722L57.098 23.936H58.138V32H55.578ZM69.2679 32.128C68.8412 32.128 68.4732 31.984 68.1639 31.696C67.8652 31.3973 67.7159 31.0187 67.7159 30.56C67.7159 30.1013 67.8652 29.7333 68.1639 29.456C68.4732 29.168 68.8412 29.024 69.2679 29.024C69.7052 29.024 70.0732 29.168 70.3719 29.456C70.6705 29.7333 70.8199 30.1013 70.8199 30.56C70.8199 31.0187 70.6705 31.3973 70.3719 31.696C70.0732 31.984 69.7052 32.128 69.2679 32.128Z" fill="url(#paint0_linear_1_108)"/>
<path d="M447 21H452C452.265 21 452.52 21.1054 452.707 21.2929C452.895 21.4804 453 21.7348 453 22C453 22.2652 452.895 22.5196 452.707 22.7071C452.52 22.8946 452.265 23 452 23H447C446.735 23 446.48 22.8946 446.293 22.7071C446.105 22.5196 446 22.2652 446 22C446 21.7348 446.105 21.4804 446.293 21.2929C446.48 21.1054 446.735 21 447 21ZM454 29H459C459.265 29 459.52 29.1054 459.707 29.2929C459.895 29.4804 460 29.7348 460 30C460 30.2652 459.895 30.5196 459.707 30.7071C459.52 30.8946 459.265 31 459 31H454C453.735 31 453.48 30.8946 453.293 30.7071C453.105 30.5196 453 30.2652 453 30C453 29.7348 453.105 29.4804 453.293 29.2929C453.48 29.1054 453.735 29 454 29ZM447 25H459C459.265 25 459.52 25.1054 459.707 25.2929C459.895 25.4804 460 25.7348 460 26C460 26.2652 459.895 26.5196 459.707 26.7071C459.52 26.8946 459.265 27 459 27H447C446.735 27 446.48 26.8946 446.293 26.7071C446.105 26.5196 446 26.2652 446 26C446 25.7348 446.105 25.4804 446.293 25.2929C446.48 25.1054 446.735 25 447 25Z" fill="#1E1E1E"/>
<defs>
<linearGradient id="paint0_linear_1_108" x1="48" y1="16" x2="48" y2="36" gradientUnits="userSpaceOnUse">
<stop/>
<stop offset="1" stop-color="#2770F4"/>
</linearGradient>
</defs>
</svg>
