<svg width="40" height="335" viewBox="0 0 40 335" fill="none" xmlns="http://www.w3.org/2000/svg">
<path d="M14.931 27.776C13.9133 27.776 13.0881 26.9293 13.0881 25.8839V18.2789C13.0881 17.7044 13.343 17.1601 13.7793 16.8015L18.8484 12.6387C19.1723 12.3705 19.5796 12.2238 20.0001 12.2238C20.4206 12.2238 20.828 12.3705 21.1518 12.6387L26.2201 16.8015C26.6573 17.1601 26.9121 17.7044 26.9121 18.2789V25.8839C26.9121 26.9293 26.087 27.776 25.0692 27.776H14.931Z" stroke="#1E1E1E" stroke-width="1.296" stroke-linecap="round" stroke-linejoin="round"/>
<path d="M17.8402 27.776V23.024C17.8402 22.5657 18.0223 22.1262 18.3463 21.8021C18.6704 21.4781 19.1099 21.296 19.5682 21.296H20.4322C20.8905 21.296 21.33 21.4781 21.6541 21.8021C21.9782 22.1262 22.1602 22.5657 22.1602 23.024V27.776" stroke="#1E1E1E" stroke-width="1.296" stroke-linecap="round" stroke-linejoin="round"/>
<path d="M20.0002 83.464C21.6968 83.464 23.0722 82.0887 23.0722 80.392C23.0722 78.6954 21.6968 77.32 20.0002 77.32C18.3035 77.32 16.9282 78.6954 16.9282 80.392C16.9282 82.0887 18.3035 83.464 20.0002 83.464Z" stroke="#1E1E1E" stroke-width="1.152"/>
<path opacity="0.5" d="M26.1441 89.224C26.1441 91.1325 26.1441 92.68 20.0001 92.68C13.8561 92.68 13.8561 91.1325 13.8561 89.224C13.8561 87.3155 16.6071 85.768 20.0001 85.768C23.3932 85.768 26.1441 87.3155 26.1441 89.224Z" stroke="#1E1E1E" stroke-width="1.152"/>
<rect y="130" width="40" height="40" rx="8" fill="#1E1E1E"/>
<g clip-path="url(#clip0_1_86)">
<path d="M15.0832 152.781C14.2399 152.106 14.2399 151.596 14.2399 149.424C14.2399 147.252 14.2399 146.166 15.0832 145.491C15.9276 144.816 17.2847 144.816 19.9999 144.816C22.7152 144.816 24.0728 144.816 24.9161 145.491C25.7594 146.166 25.7599 147.252 25.7599 149.424C25.7599 151.596 25.7599 152.106 24.9161 152.781C24.0734 153.456 22.7152 153.456 19.9999 153.456C18.5542 153.456 17.8111 154.457 16.5439 155.184V153.334C15.9138 153.24 15.4501 153.075 15.0832 152.781Z" stroke="white" stroke-width="0.864" stroke-linecap="round" stroke-linejoin="round"/>
</g>
<path d="M12.32 209.624C12.32 209.217 12.4818 208.826 12.7699 208.538C13.0579 208.25 13.4486 208.088 13.856 208.088H18.464V221.912H13.856C13.4486 221.912 13.0579 221.75 12.7699 221.462C12.4818 221.174 12.32 220.783 12.32 220.376V209.624ZM21.536 208.088H26.144C26.5514 208.088 26.9421 208.25 27.2301 208.538C27.5182 208.826 27.68 209.217 27.68 209.624V213.464H21.536V208.088ZM21.536 216.536H27.68V220.376C27.68 220.783 27.5182 221.174 27.2301 221.462C26.9421 221.75 26.5514 221.912 26.144 221.912H21.536V216.536Z" stroke="#1E1E1E" stroke-width="1.536" stroke-linecap="round" stroke-linejoin="round"/>
<path d="M26.7199 309.624H24.4159M21.3439 308.088V311.16M21.3439 309.624H12.8959M15.9679 315H12.8959M19.0399 313.464V316.536M27.4879 315H19.0399M26.7199 320.376H24.4159M21.3439 318.84V321.912M21.3439 320.376H12.8959" stroke="#1E1E1E" stroke-width="1.536" stroke-linecap="round" stroke-linejoin="round"/>
<defs>
<clipPath id="clip0_1_86">
<rect width="13.824" height="13.824" fill="white" transform="translate(13.088 143.088)"/>
</clipPath>
</defs>
</svg>
