<svg width="46" height="12" viewBox="0 0 46 12" fill="none" xmlns="http://www.w3.org/2000/svg">
<path d="M0.328 11.5V0.299999H2.92V11.5H0.328ZM10.938 11.692C10.074 11.692 9.26867 11.5533 8.522 11.276C7.786 10.988 7.146 10.5827 6.602 10.06C6.058 9.53733 5.63133 8.924 5.322 8.22C5.02333 7.516 4.874 6.74267 4.874 5.9C4.874 5.05733 5.02333 4.284 5.322 3.58C5.63133 2.876 6.058 2.26267 6.602 1.74C7.15667 1.21733 7.802 0.817333 8.538 0.539999C9.274 0.252 10.0793 0.108 10.954 0.108C11.9247 0.108 12.7993 0.278666 13.578 0.62C14.3673 0.950666 15.0287 1.44133 15.562 2.092L13.898 3.628C13.514 3.19067 13.0873 2.86533 12.618 2.652C12.1487 2.428 11.6367 2.316 11.082 2.316C10.5593 2.316 10.0793 2.40133 9.642 2.572C9.20467 2.74267 8.826 2.988 8.506 3.308C8.186 3.628 7.93533 4.00667 7.754 4.444C7.58333 4.88133 7.498 5.36667 7.498 5.9C7.498 6.43333 7.58333 6.91867 7.754 7.356C7.93533 7.79333 8.186 8.172 8.506 8.492C8.826 8.812 9.20467 9.05733 9.642 9.228C10.0793 9.39867 10.5593 9.484 11.082 9.484C11.6367 9.484 12.1487 9.37733 12.618 9.164C13.0873 8.94 13.514 8.604 13.898 8.156L15.562 9.692C15.0287 10.3427 14.3673 10.8387 13.578 11.18C12.7993 11.5213 11.9193 11.692 10.938 11.692ZM22.518 11.692C21.6327 11.692 20.8113 11.548 20.054 11.26C19.3073 10.972 18.6567 10.5667 18.102 10.044C17.558 9.52133 17.1313 8.908 16.822 8.204C16.5233 7.5 16.374 6.732 16.374 5.9C16.374 5.068 16.5233 4.3 16.822 3.596C17.1313 2.892 17.5633 2.27867 18.118 1.756C18.6727 1.23333 19.3233 0.827999 20.07 0.539999C20.8167 0.252 21.6273 0.108 22.502 0.108C23.3873 0.108 24.198 0.252 24.934 0.539999C25.6807 0.827999 26.326 1.23333 26.87 1.756C27.4247 2.27867 27.8567 2.892 28.166 3.596C28.4753 4.28933 28.63 5.05733 28.63 5.9C28.63 6.732 28.4753 7.50533 28.166 8.22C27.8567 8.924 27.4247 9.53733 26.87 10.06C26.326 10.572 25.6807 10.972 24.934 11.26C24.198 11.548 23.3927 11.692 22.518 11.692ZM22.502 9.484C23.0033 9.484 23.462 9.39867 23.878 9.228C24.3047 9.05733 24.678 8.812 24.998 8.492C25.318 8.172 25.5633 7.79333 25.734 7.356C25.9153 6.91867 26.006 6.43333 26.006 5.9C26.006 5.36667 25.9153 4.88133 25.734 4.444C25.5633 4.00667 25.318 3.628 24.998 3.308C24.6887 2.988 24.3207 2.74267 23.894 2.572C23.4673 2.40133 23.0033 2.316 22.502 2.316C22.0007 2.316 21.5367 2.40133 21.11 2.572C20.694 2.74267 20.326 2.988 20.006 3.308C19.686 3.628 19.4353 4.00667 19.254 4.444C19.0833 4.88133 18.998 5.36667 18.998 5.9C18.998 6.42267 19.0833 6.908 19.254 7.356C19.4353 7.79333 19.6807 8.172 19.99 8.492C20.31 8.812 20.6833 9.05733 21.11 9.228C21.5367 9.39867 22.0007 9.484 22.502 9.484ZM30.578 11.5V0.299999H32.722L39.33 8.364H38.29V0.299999H40.85V11.5H38.722L32.098 3.436H33.138V11.5H30.578ZM44.2679 11.628C43.8412 11.628 43.4732 11.484 43.1639 11.196C42.8652 10.8973 42.7159 10.5187 42.7159 10.06C42.7159 9.60133 42.8652 9.23333 43.1639 8.956C43.4732 8.668 43.8412 8.524 44.2679 8.524C44.7052 8.524 45.0732 8.668 45.3719 8.956C45.6705 9.23333 45.8199 9.60133 45.8199 10.06C45.8199 10.5187 45.6705 10.8973 45.3719 11.196C45.0732 11.484 44.7052 11.628 44.2679 11.628Z" fill="url(#paint0_linear_1_63)"/>
<defs>
<linearGradient id="paint0_linear_1_63" x1="23" y1="-4.5" x2="23" y2="15.5" gradientUnits="userSpaceOnUse">
<stop stop-color="#1E1E1E"/>
<stop offset="1" stop-color="#2770F4"/>
</linearGradient>
</defs>
</svg>
